# AST/ASF file generated using VICON BodyLanguage
# -----------------------------------------------
:version 1.10
:name VICON
:units
  mass 1.0
  length 0.45
  angle deg
:documentation
   .ast/.asf automatically generated from VICON data using
   VICON BodyBuilder and BodyLanguage model FoxedUp or BRILLIANT.MOD
:root
   order TX TY TZ RX RY RZ
   axis XYZ
   position 0 0 0  
   orientation 0 0 0 
:bonedata
  begin
     id 1 
     name lhipjoint
     direction 0.682418 -0.694059 0.22932 
     length 2.25561 
     axis 0 0 0  XYZ
  end
  begin
     id 2 
     name lfemur
     direction 0.34202 -0.939693 0  
     length 6.96448  
     axis 0 0 20  XYZ
    dof rx ry rz
    limits (-160.0 20.0)
           (-70.0 70.0)
           (-60.0 70.0)
  end
  begin
     id 3 
     name ltibia
     direction 0.34202 -0.939693 0   
     length 6.88553   
     axis 0 0 20   XYZ
    dof rx
    limits (-10.0 170.0)
  end
  begin
     id 4 
     name lfoot
     direction 0.0723587 -0.198804 0.977364   
     length 1.88518   
     axis -90 7.62852e-016 20   XYZ
    dof rx rz
    limits (-45.0 90.0)
           (-70.0 20.0)
  end
  begin
     id 5 
     name ltoes
     direction 1.53558e-011 -4.21962e-011 1   
     length 0.952124   
     axis -90 7.62852e-016 20   XYZ
    dof rx
    limits (-90.0 20.0)
  end
  begin
     id 6 
     name rhipjoint
     direction -0.657603 -0.71533 0.236348   
     length 2.18854  
     axis 0 0 0  XYZ 
  end
  begin
     id 7 
     name rfemur
     direction -0.34202 -0.939693 0   
     length 6.86686   
     axis 0 0 -20   XYZ
    dof rx ry rz
    limits (-160.0 20.0)
           (-70.0 70.0)
           (-70.0 60.0)
  end
  begin
     id 8 
     name rtibia
     direction -0.34202 -0.939693 0   
     length 6.59503   
     axis 0 0 -20   XYZ
    dof rx
    limits (-10.0 170.0)
 end
 begin
     id 9 
     name rfoot
     direction -0.101977 -0.280179 0.954516   
     length 1.93723  
     axis -90 -7.62852e-016 -20   XYZ
    dof rx rz
    limits (-45.0 90.0)
           (-20.0 70.0)
  end
  begin
     id 10 
     name rtoes
     direction -1.53564e-011 -4.21897e-011 1   
     length 0.970315   
     axis -90 -7.62852e-016 -20   XYZ
    dof rx
    limits (-90.0 20.0)
  end
  begin
     id 11 
     name lowerback
     direction -0.0339559 0.999421 -0.00235966   
     length 1.88543   
     axis 0 0 0   XYZ
    dof rx ry rz
    limits (-20.0 45.0)
           (-30.0 30.0)
           (-30.0 30.0)
  end
  begin
     id 12 
     name upperback
     direction 0.00401003 0.999739 0.0224689   
     length 1.8856   
     axis 0 0 0   XYZ
    dof rx ry rz
    limits (-20.0 45.0)
           (-30.0 30.0)
           (-30.0 30.0)
  end
  begin
     id 13 
     name thorax
     direction 0.0198619 0.999546 0.0226536   
     length 1.88352   
     axis 0 0 0   XYZ
    dof rx ry rz
    limits (-20.0 45.0)
           (-30.0 30.0)
           (-30.0 30.0)
  end
  begin
     id 14 
     name lowerneck
     direction -0.0461848 0.998632 0.0245198   
     length 1.34895   
     axis 0 0 0   XYZ
    dof rx ry rz
    limits (-20.0 45.0)
           (-30.0 30.0)
           (-30.0 30.0)
  end
  begin
     id 15 
     name upperneck
     direction -0.0180627 0.994724 -0.100984   
     length 1.35214   
     axis 0 0 0   XYZ
    dof rx ry rz
    limits (-20.0 45.0)
           (-30.0 30.0)
           (-30.0 30.0)
  end
  begin
     id 16
     name head
     direction -0.00374772 0.999293 -0.037403  
     length 1.3568  
     axis 0 0 0   XYZ
    dof rx ry rz
    limits (-20.0 45.0)
           (-30.0 30.0)
           (-30.0 30.0)
  end
  begin
     id 17 
     name lclavicle
     direction 0.971773 0.191119 0.138311  
     length 2.84954  
     axis 0 0 0   XYZ
    dof ry rz
    limits (-20.0 10.0)
           (0.0 20.0)
  end
  begin
     id 18 
     name lhumerus
     direction 1 -4.4897e-011 -2.43761e-027   
     length 4.40919   
     axis 180 -30 -90   XYZ
    dof rx ry rz
    limits (-60.0 90.0)
           (-90.0 90.0)
           (-90.0 90.0)
  end
  begin
     id 19
     name lradius
     direction 1 -4.4896e-011 -9.1621e-027   
     length 3.03857   
     axis 180 -30 -90   XYZ
    dof rx
    limits (-10.0 170.0)
  end
  begin
     id 20
     name lwrist
     direction 1 -4.4896e-011 -1.41363e-026   
     length 1.51928   
     axis 1.07133e-014 90 90   XYZ
    dof ry
    limits (-180.0 0.0)
 end
  begin
     id 21 
     name lhand
     direction 1 -4.48978e-011 -2.82725e-026   
     length 0.523208   
     axis 1.80403e-014 90 90   XYZ
    dof rx rz
    limits (-90.0 90.0)
           (-45.0 45.0)
  end
  begin
     id 22 
     name lfingers
     direction 1 -4.48977e-011 -5.6545e-026   
     length 0.421824   
     axis 3.60806e-014 90 90   XYZ
    dof rx
    limits (0.0 90.0)
  end
  begin
     id 23
     name lthumb
     direction 0.707107 -6.34962e-011 0.707107   
     length 0.605657   
     axis -90 45 2.85299e-015   XYZ
    dof rx rz
    limits (-45.0 45.0)
           (-45.0 45.0)
  end
  begin
     id 24 
     name rclavicle
     direction -0.957247 0.24311 0.156766   
     length 3.12406  
     axis 0 0 0   XYZ 
    dof ry rz
    limits (-10.0 20.0)
           (-20.0 0.0)
  end
  begin
     id 25 
     name rhumerus
     direction -1 -4.48964e-011 -1.70632e-027  
     length 4.61969   
     axis 180 30 90   XYZ
    dof rx ry rz
    limits (-90.0 60.0)
           (-90.0 90.0)
           (-90.0 90.0)
  end
  begin
     id 26 
     name rradius
     direction -1 -4.48966e-011 -6.60395e-027   
     length 3.09382   
     axis 180 30 90   XYZ
    dof rx
    limits (-10.0 170.0)
  end
  begin
     id 27 
     name rwrist
     direction -1 -4.48963e-011 -1.41363e-026   
     length 1.54691   
     axis 1.07133e-014 -90 -90   XYZ
    dof ry
    limits (-180.0 0.0)
  end
  begin
     id 28
     name rhand
     direction -1 -4.49013e-011 -2.82725e-026   
     length 0.500896   
     axis 1.80403e-014 -90 -90   XYZ
    dof rx rz
    limits (-90.0 90.0)
           (-45.0 45.0)
  end
  begin
     id 29
     name rfingers
     direction -1 -4.48902e-011 -5.6545e-026   
     length 0.403835   
     axis 3.60806e-014 -90 -90   XYZ
    dof rx
    limits (0.0 90.0)
  end
  begin
     id 30
     name rthumb
     direction -0.707107 -6.34953e-011 0.707107   
     length 0.579829   
     axis -90 -45 -2.85299e-015   XYZ
    dof rx rz
    limits (-45.0 45.0)
           (-45.0 45.0)
  end
:hierarchy
  begin
    root lhipjoint rhipjoint lowerback
    lhipjoint lfemur
    lfemur ltibia
    ltibia lfoot
    lfoot ltoes
    rhipjoint rfemur
    rfemur rtibia
    rtibia rfoot
    rfoot rtoes
    lowerback upperback
    upperback thorax
    thorax lowerneck lclavicle rclavicle
    lowerneck upperneck
    upperneck head
    lclavicle lhumerus
    lhumerus lradius
    lradius lwrist
    lwrist lhand lthumb
    lhand lfingers
    rclavicle rhumerus
    rhumerus rradius
    rradius rwrist
    rwrist rhand rthumb
    rhand rfingers
  end

#!OML:ASF E:\madness\Project 1\Capture day 1\Session 1\Female1.ASF
:FULLY-SPECIFIED
:DEGREES
591
root 18.7169 16.19 -3.11864 304.645 -85.7527 -299.272
lowerback 1.97531 3.04091 -2.8091
upperback -0.53172 3.95629 -1.05112
thorax -1.76721 1.99578 0.350114
lowerneck -2.375 7.75578 2.98746
upperneck 22.1404 11.5255 -8.05224
head 7.85652 4.84938 -2.28503
rclavicle -7.64079e-015 -4.77083e-015
rhumerus -47.393 -2.7417 -74.1623
rradius 50.6956
rwrist 7.02897
rhand -12.9371 -39.3839
rfingers 7.12502
rthumb 13.1538 -68.949
lclavicle -7.64079e-015 -4.77083e-015
lhumerus -55.4367 10.4913 69.7185
lradius 46.5474
lwrist -1.61807
lhand -29.448 -4.55458
lfingers 7.12502
lthumb -2.78441 25.407
rfemur -7.1898 13.8254 21.7016
rtibia 18.4835
rfoot -16.7954 -15.5043
rtoes 24.512
lfemur -39.8803 -21.7193 -10.5228
ltibia 55.0301
lfoot -3.46405 3.15409
ltoes 12.3167
592
root 18.6942 16.1922 -3.10154 303.253 -85.7838 -297.903
lowerback 1.96214 3.01714 -2.85228
upperback -0.688807 3.92227 -0.970915
thorax -1.92886 1.98279 0.452231
lowerneck -2.70753 7.80885 2.4598
upperneck 22.4964 11.5895 -7.6313
head 7.98331 4.84756 -2.04201
rclavicle -1.6201e-014 1.49089e-014
rhumerus -47.3287 -2.50719 -74.1651
rradius 50.1447
rwrist 6.94839
rhand -12.6373 -40.2852
rfingers 7.12502
rthumb 13.4428 -69.8314
lclavicle -1.6201e-014 1.49089e-014
lhumerus -55.4464 10.9431 69.4467
lradius 46.1048
lwrist -2.01242
lhand -29.4399 -4.29912
lfingers 7.12502
lthumb -2.77655 25.6626
rfemur -6.9754 14.0526 21.6354
rtibia 18.276
rfoot -16.7991 -15.6489
rtoes 24.3271
lfemur -39.6495 -21.7459 -10.4835
ltibia 54.255
lfoot -3.38721 3.51871
ltoes 9.97479
593
root 18.6726 16.1934 -3.0813 302.349 -85.8423 -296.986
lowerback 1.91701 3.00995 -2.80067
upperback -0.8893 3.91239 -0.926051
thorax -2.10904 1.98097 0.465168
lowerneck -2.68239 7.80782 2.47735
upperneck 22.7565 11.5923 -7.60656
head 8.06624 4.83866 -2.03722
rclavicle -1.67352e-014 6.36111e-015
rhumerus -47.3153 -2.32289 -74.217
rradius 49.5859
rwrist 6.98149
rhand -12.8671 -40.6698
rfingers 7.12502
rthumb 13.2213 -70.2305
lclavicle -1.67352e-014 6.36111e-015
lhumerus -55.4681 11.2381 69.183
lradius 45.6273
lwrist -2.30141
lhand -29.6421 -4.57463
lfingers 7.12502
lthumb -2.97178 25.3844
rfemur -6.78253 14.2582 21.5996
rtibia 18.0302
rfoot -16.7738 -15.7644
rtoes 24.4427
lfemur -39.4709 -21.7023 -10.4058
ltibia 53.5199
lfoot -3.38537 3.73901
ltoes 8.31655
594
root 18.6526 16.1969 -3.05837 300.059 -85.9551 -294.655
lowerback 1.82555 3.04695 -2.60292
upperback -1.09989 3.96417 -0.985239
thorax -2.25806 2.00624 0.290718
lowerneck -2.29223 7.78725 2.86747
upperneck 22.7351 11.5598 -7.8323
head 8.0235 4.84407 -2.1941
rclavicle -2.06612e-014 7.15625e-015
rhumerus -47.3678 -2.4034 -74.3048
rradius 49.0748
rwrist 7.07022
rhand -13.1019 -40.4229
rfingers 7.12502
rthumb 12.9949 -69.9982
lclavicle -2.06612e-014 7.15625e-015
lhumerus -55.7317 11.0323 69.0853
lradius 45.7369
lwrist -2.02329
lhand -29.7444 -4.60979
lfingers 7.12502
lthumb -3.07059 25.3478
rfemur -6.66466 14.45 21.5263
rtibia 17.807
rfoot -16.6577 -15.7632
rtoes 24.3522
lfemur -39.2745 -21.6205 -10.315
ltibia 52.8255
lfoot -3.44664 3.88009
ltoes 7.76966
595
root 18.6325 16.2012 -3.03758 297.367 -86.0476 -291.916
lowerback 1.65307 3.05549 -2.46762
upperback -1.18754 3.98244 -1.01187
thorax -2.24057 2.01355 0.194894
lowerneck -2.07222 7.84769 3.11424
upperneck 22.6028 11.6425 -7.99397
head 7.96926 4.90052 -2.28913
rclavicle 3.78933e-015 4.57205e-015
rhumerus -47.2594 -2.42132 -74.3947
rradius 48.67
rwrist 7.09122
rhand -13.0192 -39.9834
rfingers 7.12502
rthumb 13.0747 -69.5535
lclavicle 3.78933e-015 4.57205e-015
lhumerus -55.9509 10.8606 69.0914
lradius 46.0809
lwrist -1.66762
lhand -29.5589 -4.55224
lfingers 7.12502
lthumb -2.89151 25.4079
rfemur -6.56803 14.5382 21.4307
rtibia 17.6139
rfoot -16.5243 -15.6586
rtoes 24.2259
lfemur -39.0828 -21.6251 -10.2145
ltibia 52.1387
lfoot -3.3871 4.06006
ltoes 7.84271
596
root 18.6134 16.203 -3.01962 296.644 -86.0504 -291.124
lowerback 1.4966 3.00869 -2.47131
upperback -1.25658 3.9242 -0.979894
thorax -2.22488 1.98516 0.238548
lowerneck -2.48659 7.85821 2.58075
upperneck 22.9052 11.6392 -7.54751
head 8.08645 4.86932 -2.03872
rclavicle -4.46396e-014 1.17283e-014
rhumerus -47.0802 -2.31913 -74.4909
rradius 48.3407
rwrist 7.04835
rhand -12.8771 -39.6768
rfingers 7.12502
rthumb 13.2117 -69.2382
lclavicle -4.46396e-014 1.17283e-014
lhumerus -55.8804 11.0083 68.9704
lradius 45.8558
lwrist -1.795
lhand -29.4236 -4.68926
lfingers 7.12502
lthumb -2.76082 25.2726
rfemur -6.47069 14.5973 21.353
rtibia 17.4892
rfoot -16.5247 -15.681
rtoes 24.1942
lfemur -38.9901 -21.6934 -10.0984
ltibia 51.413
lfoot -3.28301 4.08101
ltoes 9.60408
597
root 18.592 16.2046 -2.99963 295.915 -85.9986 -290.343
lowerback 1.4219 2.92873 -2.52806
upperback -1.39694 3.81579 -0.942631
thorax -2.33109 1.93379 0.311398
lowerneck -2.84671 7.97909 2.32435
upperneck 23.3999 11.8064 -7.2601
head 8.29632 4.9188 -1.87074
rclavicle -4.67144e-014 1.27222e-014
rhumerus -46.9205 -2.13328 -74.5865
rradius 47.9629
rwrist 6.92481
rhand -13.054 -39.6595
rfingers 7.12502
rthumb 13.0412 -69.2318
lclavicle -4.67144e-014 1.27222e-014
lhumerus -55.8799 11.3787 68.7039
lradius 45.4214
lwrist -2.02544
lhand -29.5218 -4.57629
lfingers 7.12502
lthumb -2.85566 25.3843
rfemur -6.3638 14.7968 21.2301
rtibia 17.4497
rfoot -16.6891 -15.866
rtoes 23.9346
lfemur -38.8394 -21.7878 -10.0447
ltibia 50.6261
lfoot -3.24241 4.05083
ltoes 11.3966
598
root 18.5677 16.2004 -2.97749 293.715 -86.0011 -288.151
lowerback 1.41814 2.90919 -2.53452
upperback -1.53509 3.78678 -0.912536
thorax -2.47296 1.92148 0.342112
lowerneck -2.39908 7.94185 2.43215
upperneck 22.7948 11.7417 -7.45545
head 8.02498 4.91984 -1.97985
rclavicle 1.16413e-014 1.78906e-015
rhumerus -46.7989 -2.03658 -74.6239
rradius 47.4944
rwrist 6.90019
rhand -13.5934 -39.296
rfingers 7.12502
rthumb 12.5211 -68.9008
lclavicle 1.16413e-014 1.78906e-015
lhumerus -55.8926 11.6842 68.5179
lradius 45.0858
lwrist -2.12599
lhand -29.781 -4.07322
lfingers 7.12502
lthumb -3.10596 25.8839
rfemur -6.21601 15.1147 21.1058
rtibia 17.3825
rfoot -16.8765 -15.955
rtoes 24.23
lfemur -38.5295 -21.7723 -10.0454
ltibia 49.8155
lfoot -3.18885 4.04532
ltoes 11.0691
599
root 18.5453 16.1975 -2.9565 290.67 -86.0656 -285.134
lowerback 1.44533 2.93938 -2.49813
upperback -1.61669 3.82558 -0.89259
thorax -2.57226 1.94156 0.336272
lowerneck -2.23004 7.92599 2.75186
upperneck 22.6632 11.735 -7.72522
head 7.98576 4.92925 -2.12782
rclavicle -1.20637e-014 6.95746e-015
rhumerus -46.5706 -2.05378 -74.6854
rradius 46.9901
rwrist 6.9764
rhand -13.5216 -39.4726
rfingers 7.12502
rthumb 12.5903 -69.0732
lclavicle -1.20637e-014 6.95746e-015
lhumerus -55.7713 11.7327 68.5324
lradius 44.8076
lwrist -2.18908
lhand -30.0112 -3.75587
lfingers 7.12502
lthumb -3.32825 26.1979
rfemur -6.06036 15.4077 21.0287
rtibia 17.264
rfoot -16.9299 -15.9354
rtoes 24.818
lfemur -38.1454 -21.5959 -10.0691
ltibia 48.988
lfoot -3.17956 4.06179
ltoes 9.77971
